# xmcd
#
# Track frame offsets:
#	150
#	21970
#	40675
#	54032
#
# Disc length: 979 seconds
#
# Revision: 0
# Processed by: cddbd v1.4PL0 Copyright (c) Steve Scherf et al.
# Submitted via: dBpowerAMP V4.0
#
DISCID=2303d104
DTITLE=Stephen Ackles - Promo
DYEAR=1993
DGENRE=Country
TTITLE0=Higher Ground
TTITLE1=Let`s Keep The Night
TTITLE2=Last Call For Rock`n`Roll
TTITLE3=Wishin` For You
EXTD=
EXTT0=
EXTT1=
EXTT2=
EXTT3=
PLAYORDER=
